<?xml version="1.0" standalone="no"?>
<!DOCTYPE svg PUBLIC "-//W3C//DTD SVG 1.1//EN" "http://www.w3.org/Graphics/SVG/1.1/DTD/svg11.dtd" >
<svg xmlns="http://www.w3.org/2000/svg">
<metadata>
Created by FontForge 20120731 at Thu Nov 17 16:41:19 2016
 By admin
</metadata>
<defs>
<font id="iconfont" horiz-adv-x="1024" >
  <font-face 
    font-family="iconfont"
    font-weight="500"
    font-stretch="normal"
    units-per-em="1024"
    panose-1="2 0 6 3 0 0 0 0 0 0"
    ascent="896"
    descent="-128"
    x-height="792"
    bbox="44 -31 996 792"
    underline-thickness="0"
    underline-position="0"
    unicode-range="U+0078-E701"
  />
<missing-glyph 
 />
    <glyph glyph-name=".notdef" 
 />
    <glyph glyph-name=".notdef" 
 />
    <glyph glyph-name=".null" horiz-adv-x="0" 
 />
    <glyph glyph-name="nonmarkingreturn" horiz-adv-x="341" 
 />
    <glyph glyph-name="x" unicode="x" horiz-adv-x="1001" 
d="M281 543q-27 -1 -53 -1h-83q-18 0 -36.5 -6t-32.5 -18.5t-23 -32t-9 -45.5v-76h912v41q0 16 -0.5 30t-0.5 18q0 13 -5 29t-17 29.5t-31.5 22.5t-49.5 9h-133v-97h-438v97zM955 310v-52q0 -23 0.5 -52t0.5 -58t-10.5 -47.5t-26 -30t-33 -16t-31.5 -4.5q-14 -1 -29.5 -0.5
t-29.5 0.5h-32l-45 128h-439l-44 -128h-29h-34q-20 0 -45 1q-25 0 -41 9.5t-25.5 23t-13.5 29.5t-4 30v167h911zM163 247q-12 0 -21 -8.5t-9 -21.5t9 -21.5t21 -8.5q13 0 22 8.5t9 21.5t-9 21.5t-22 8.5zM316 123q-8 -26 -14 -48q-5 -19 -10.5 -37t-7.5 -25t-3 -15t1 -14.5
t9.5 -10.5t21.5 -4h37h67h81h80h64h36q23 0 34 12t2 38q-5 13 -9.5 30.5t-9.5 34.5q-5 19 -11 39h-368zM336 498v228q0 11 2.5 23t10 21.5t20.5 15.5t34 6h188q31 0 51.5 -14.5t20.5 -52.5v-227h-327z" />
    <glyph glyph-name="sousuo01" unicode="&#xe61e;" 
d="M767 114q-6 0 -10 5l-149 176q-8 9 1 18q25 25 39 57q17 37 17 78q0 79 -56 135t-135 56t-135.5 -56t-56.5 -135t56.5 -135t135.5 -56q40 0 76 16q13 5 18 -7t-7 -18q-42 -18 -87 -18q-90 0 -154 64t-64 154t64 154t154 64t153.5 -64t63.5 -154q0 -47 -18 -89
q-14 -31 -37 -56l141 -167q9 -10 -1 -19q-4 -3 -9 -3v0z" />
    <glyph glyph-name="xinxi" unicode="&#xe63b;" 
d="M806 226h-568v371h568v-371zM244 233h556v357h-556v-357zM522 313l-284 284h568zM254 590l268 -268l268 268h-536zM424 416l5 -5l-186 -184l-4 5zM619 415l185 -182l-4 -4l-185 181z" />
    <glyph glyph-name="daiban1" unicode="&#xe620;" 
d="M762 483l-240 -232l-86 -17l17 83l241 233q16 17 34 0q20 -19 34 -33q8 -8 8 -16.5t-4 -12.5l-4 -5v0zM453 250l69 17l-51 50zM522 284l189 183l-34 33l-189 -183zM711 533l-17 -16l34 -34l17 17zM694 605v-16l17 -1v17q0 15 -8.5 23t-17.5 9l-8 1h-395q-4 0 -10 -1
t-15.5 -9t-9.5 -23v-438q0 -14 8.5 -22.5t17.5 -9.5l9 -1h395q15 0 23.5 8.5t9.5 16.5l1 8v217h-17v-217q0 -2 -0.5 -4.5t-5 -7t-11.5 -4.5h-395q-8 0 -12.5 4t-4.5 8l-1 4v438q0 8 4.5 12t8.5 4l5 1h395v0q2 0 4.5 -0.5t7.5 -5t5 -11.5z" />
    <glyph glyph-name="gonggao" unicode="&#xe651;" 
d="M695 383q0 40 -19.5 73.5t-52.5 52.5q-6 3 -10 3q-7 0 -12 -5t-5 -13q0 -10 8 -15q26 -14 41 -39.5t15 -56.5t-15.5 -56.5t-41.5 -40.5q-9 -5 -9 -14q0 -8 5 -13t13 -5l9 3q34 19 54 52.5t20 73.5zM675 597q-6 4 -10 4q-7 0 -12.5 -5.5t-5.5 -12.5q0 -10 10 -15
q49 -28 77.5 -77.5t28.5 -107.5t-28.5 -107t-77.5 -77q-10 -6 -10 -16q0 -7 5 -12t12 -5q5 0 11 3q56 33 89.5 90t33.5 124.5t-33.5 124t-89.5 89.5zM263 503h85q23 0 106 61q19 14 39 29v-226q0 -7 5 -12t12 -5t12.5 5t5.5 12v9v24t-0.5 34.5t-0.5 40.5v42.5v40.5v33.5
v23.5v9q0 13 -12 18.5t-22 -2.5l-1.5 -1t-3.5 -2.5t-5 -3.5t-6.5 -5t-8 -6.5l-9 -7t-10 -7.5t-11 -8.5t-10.5 -8.5q-64 -46 -80 -52h-74h-1h-1h-37q-8 0 -13 -5t-5 -12v-276q0 -7 5 -12t13 -5h126q16 -6 73 -51q19 -16 58 -50q6 -5 14 -5q4 0 8 2q13 5 13 19v97v0v1v0
q-1 7 -6 11.5t-11 4.5q-8 0 -13 -5t-5 -12q0 -1 1 -64q-16 13 -31 25q-76 62 -99 62h-0.5h-0.5v0v0h-96q-8 0 -11 3t-3 12v212q0 13 11 13z" />
    <glyph glyph-name="shezhi" unicode="&#xe62b;" 
d="M409 94l-120 67l8 12q14 21 14 52q0 38 -29.5 66.5t-69.5 28.5h-13v135h13q41 0 71.5 28.5t30.5 66.5q0 21 -9 41l-5 10l115 76l7 -12q27 -47 81 -47q49 0 77 41l8 10l104 -66l-5 -11q-14 -27 -14 -42q0 -38 26.5 -66.5t62.5 -28.5h13v-135h-13q-36 0 -62.5 -28.5
t-26.5 -66.5q0 -7 9 -24q3 -8 5 -12l4 -10l-99 -67l-7 13q-13 21 -35 33.5t-46 12.5q-30 0 -54.5 -17t-35.5 -45l-5 -15v0zM327 171l68 -38q16 29 45.5 47t63.5 18q59 0 96 -48l57 39v0q-11 22 -11 36q0 46 29.5 80.5t72.5 40.5v83q-42 6 -72 41t-30 80q0 19 11 43l-63 40
q-36 -42 -91 -42q-60 0 -97 48l-72 -48q7 -20 7 -41q0 -46 -33.5 -81t-81.5 -40v-83q47 -5 79.5 -40t32.5 -81q0 -30 -11 -54v0zM327 171zM490 299q-44 0 -74 35q-25 31 -21.5 71t33.5 65q28 24 64 23t63 -24l10 -10q32 -39 19 -88l-26 7q10 35 -14 63q-3 4 -7 7
q-19 18 -45 18t-46 -16q-22 -19 -24.5 -47.5t15.5 -51.5q14 -16 34.5 -22t40.5 1l9 -26q-15 -5 -31 -5v0zM490 299z" />
    <glyph glyph-name="13" unicode="&#xe65b;" 
d="M574 120q-4 0 -7 3l-128 112h-171q-21 0 -36 15t-15 36v302q0 21 15 36t36 15h488q21 0 36 -15t15 -36v-302q0 -22 -15 -36.5t-36 -14.5h-172v-105q0 -6 -6 -9q-2 -1 -4 -1zM268 618q-13 0 -22 -9t-9 -21v-302q0 -13 9 -22t22 -9h175q4 0 7 -3l114 -99v92q0 10 10 10h182
q13 0 22 9t9 22v302q0 12 -9 21t-22 9h-488zM600 488h-176q-10 0 -10 10.5t10 10.5h176q10 0 10 -10.5t-10 -10.5zM600 406h-176q-10 0 -10 10t10 10h176q10 0 10 -10t-10 -10z" />
    <glyph glyph-name="xianxingtubiao01" unicode="&#xe600;" 
d="M769 125h-469q-9 0 -15 6.5t-6 14.5v425q0 9 6 15t15 6h78v-21h-78v-425h469v425h-67v21h67q8 0 14.5 -6t6.5 -15v-425q0 -8 -6.5 -14.5t-14.5 -6.5zM493 592h92v-21h-92v21zM448 531h-23q-9 0 -15.5 6t-6.5 15v70q0 8 6.5 14.5t15.5 6.5h23q9 0 15.5 -6.5t6.5 -14.5v-70
q0 -9 -6.5 -15t-15.5 -6zM425 622v-70h23v70h-23zM657 531h-24q-8 0 -14.5 6t-6.5 15v70q0 8 6.5 14.5t14.5 6.5h24q9 0 15 -6.5t6 -14.5v-70q0 -9 -6 -15t-15 -6zM633 622v-70h24v70h-24zM496 371h-96q-9 0 -15 6.5t-6 14.5v47q0 9 6 15t15 6h96q9 0 15 -6t6 -15v-47
q0 -8 -6 -14.5t-15 -6.5zM400 439v-47h96v47h-96zM679 371h-96q-8 0 -14.5 6.5t-6.5 14.5v47q0 9 6.5 15t14.5 6h96q9 0 15.5 -6t6.5 -15v-47q0 -8 -6.5 -14.5t-15.5 -6.5zM583 439v-47h96v47h-96zM499 223h-96q-9 0 -15.5 6t-6.5 15v47q0 9 6.5 15t15.5 6h96q8 0 14.5 -6
t6.5 -15v-47q0 -9 -6.5 -15t-14.5 -6zM403 291v-47h96v47h-96zM683 223h-96q-9 0 -15 6t-6 15v47q0 9 6 15t15 6h96q9 0 15 -6t6 -15v-47q0 -9 -6 -15t-15 -6zM587 291v-47h96v47h-96z" />
    <glyph glyph-name="xianxingtubiao08" unicode="&#xe607;" 
d="M227 411l563 167q12 3 15 -8q1 -4 -1 -8l-225 -509q-5 -11 -16 -6q-3 1 -4 3l-151 168v0q-8 9 1 17v0l294 253v0l-338 -218q-8 -5 -14 1l-1 1l-128 119q-9 8 0 17q2 2 5 3zM254 394l113 -105l-15 2l351 197v0l-278 -271l1 17l151 -168l-20 -3l225 508l15 -16zM333 168
v-126l70 57z" />
    <glyph glyph-name="xianxingtubiao18" unicode="&#xe612;" 
d="M472 25zM472.5 12q-4.5 0 -8.5 4q-12 11 -28.5 28.5t-55.5 62.5t-68.5 86t-53.5 91.5t-24 87.5q0 101 71.5 172.5t172 71.5t172 -71.5t71.5 -172.5q0 -37 -25 -87.5t-56 -92t-71.5 -86.5t-58 -62t-29.5 -28q-4 -4 -8.5 -4zM477.5 591q-90.5 0 -155 -64t-64.5 -155
q0 -38 26 -90t67.5 -103t69 -82t52.5 -56q25 25 54 55.5t72 82t70.5 103.5t27.5 90q0 91 -64.5 155t-155 64zM476.5 279q-38.5 0 -65.5 26t-27 62.5t27 62.5t65.5 26t65.5 -26t27 -62.5t-27 -62.5t-65.5 -26zM476.5 432q-28.5 0 -48.5 -19t-20 -45.5t20 -45.5t48.5 -19
t48.5 19t20 45.5t-20 45.5t-48.5 19z" />
    <glyph glyph-name="xianxingtubiao22" unicode="&#xe616;" 
d="M759 -11h-524q-15 0 -25.5 10.5t-10.5 25.5v500q0 15 10.5 25.5t25.5 10.5h247v-24h-247q-5 0 -8.5 -3.5t-3.5 -8.5v-500q0 -5 3.5 -8.5t8.5 -3.5h524q5 0 8.5 3.5t3.5 8.5v431h24v-431q0 -15 -11 -25.5t-25 -10.5zM795 381h-24v69q0 5 -3.5 8.5t-8.5 3.5h-277v24h277
q14 0 25 -10.5t11 -25.5v-69zM419 555zM497 474zM456 555zM509 471h-24v54q0 5 -3.5 8.5t-8.5 3.5h-234v24h234q14 0 25 -10.5t11 -25.5v-54zM211 411h572v-24h-572v24z" />
    <glyph glyph-name="xianxingtubiao28" unicode="&#xe61c;" 
d="M484 135q-82 0 -140.5 58.5t-58.5 140.5v79h-52v24h76v-103q0 -72 51.5 -123.5t123.5 -51.5t123.5 51.5t51.5 123.5v103h72v-24h-48v-79q0 -82 -58.5 -140.5t-140.5 -58.5zM232 452h24v-48h-24v48zM705 452h24v-53h-24v53zM482 92zM379 104h207v-24h-207v24zM482 202
q-57 0 -97 40t-40 97v206q0 57 40 97t97 40t97.5 -40t40.5 -97v-206q0 -57 -40.5 -97t-97.5 -40zM482 658q-47 0 -80 -33t-33 -80v-206q0 -47 33 -80t80 -33t80 33t33 80v206q0 47 -33 80t-80 33zM484 92zM470 141h24v-42h-24v42z" />
    <glyph glyph-name="xianxingtubiao30" unicode="&#xe61f;" 
d="M464 490h-38t-30 7q-6 4 -6 29v48q0 15 10.5 26t25.5 11h185q15 0 25.5 -11t10.5 -26v-48v-5q1 -19 -5 -22q-1 -1 -1.5 -2t-0.5 -2.5t-7.5 -2.5t-21.5 -2h-147zM414 515q3 -1 12 -1h38h147q9 0 13 1q0 1 -1 4v7v48q0 5 -3.5 8.5t-8.5 3.5h-185q-5 0 -8.5 -3.5t-3.5 -8.5
v-48v-11zM218 505h599v-24h-599v24zM650 17h-7h-253q-23 1 -40.5 11t-22.5 16.5t-7 10.5l-1 3v2l-24 442l24 1l24 -439q14 -22 47 -23h255v0q22 -1 34 8q9 8 10 22l21 422l24 -1l-21 -423q-2 -25 -19 -38.5t-44 -13.5zM414 420h24v-313h-24v313zM530 420l1 -313h-24l-1 313
h24zM597 420h24v-313h-24v313z" />
    <glyph glyph-name="xianxingtubiao33" unicode="&#xe621;" 
d="M267 730h24v-99h-24v99zM267 428h24v-291h-24v291zM501 730h25v-187h-25v187zM501 336h25v-199h-25v199zM733 730h24v-265h-24v265zM733 236h24v-99h-24v99zM283 453q-27 0 -46 19t-19 45.5t19 45.5t46 19t46 -19t19 -45.5t-19 -45.5t-46 -19zM283 558q-17 0 -28.5 -11.5
t-11.5 -28.5t11.5 -29t28.5 -12t29 12t12 29t-12 28.5t-29 11.5zM745.5 285q-26.5 0 -45.5 19t-19 46t19 46t45.5 19t45.5 -19t19 -46t-19 -46t-45.5 -19zM745 391q-17 0 -28.5 -12t-11.5 -29t11.5 -28.5t28.5 -11.5t29 11.5t12 28.5t-12 29t-29 12zM513.5 373
q-26.5 0 -45.5 19t-19 45.5t19 45.5t45.5 19t45.5 -19t19 -45.5t-19 -45.5t-45.5 -19zM513.5 478q-16.5 0 -28.5 -12t-12 -29t12 -28.5t28.5 -11.5t28.5 11.5t12 28.5t-12 29t-28.5 12z" />
    <glyph glyph-name="xianxingtubiao34" unicode="&#xe622;" 
d="M526.5 64q-127.5 0 -218 90.5t-90.5 218t90.5 218t218 90.5t218 -90.5t90.5 -218t-90.5 -218t-218 -90.5zM526.5 657q-117.5 0 -201 -83.5t-83.5 -201t83.5 -201t201 -83.5t201 83.5t83.5 201t-83.5 201t-201 83.5zM479 263v0q-5 0 -9 3l-124 130l17 17l116 -121l200 199
l17 -17l-209 -208q-3 -3 -8 -3z" />
    <glyph glyph-name="xianxingtubiao35" unicode="&#xe623;" 
d="M441.5 54q-122.5 0 -209.5 87t-87 209.5t87 209.5t209.5 87t209.5 -87t87 -209.5t-87 -209.5t-209.5 -87zM441.5 623q-112.5 0 -192.5 -80t-80 -192.5t80 -192.5t192.5 -80t192.5 80t80 192.5t-80 192.5t-192.5 80zM351 464l204 -208l-17 -17l-205 208zM538 463l17 -16
l-204 -220l-18 17z" />
    <glyph glyph-name="xianxingtubiao04" unicode="&#xe604;" 
d="M512 11q-118 0 -202 84t-84 202t84 202t202 84t202 -84t84 -202t-84 -202t-202 -84zM512 559q-108 0 -185 -77t-77 -185t77 -185t185 -77t185 77t77 185t-77 185t-185 77zM630 219l-130 71v176h24v-162l117 -64z" />
    <glyph glyph-name="xianxingtubiao10" unicode="&#xe60a;" 
d="M500 114q-116 0 -198.5 82t-82.5 198.5t82.5 199t198.5 82.5t198.5 -82.5t82.5 -199t-82.5 -198.5t-198.5 -82zM500 652q-106 0 -181.5 -75.5t-75.5 -182t75.5 -181.5t181.5 -75t181.5 75t75.5 181.5t-75.5 182t-181.5 75.5zM426 264q-4 0 -7 2q-5 4 -5 10v221
q0 7 6 10.5t12 -0.5l189 -124q6 -4 5.5 -11t-6.5 -10l-189 -96q-2 -2 -5 -2zM438 475v-179l152 78z" />
    <glyph glyph-name="xianxingtubiao11" unicode="&#xe60b;" 
d="M487 140q-107 0 -182.5 76t-75.5 183t75.5 183t182.5 76t183 -76t76 -183t-76 -183t-183 -76zM487.5 634q-97.5 0 -166 -69t-68.5 -166t68.5 -166t166 -69t166 69t68.5 166t-68.5 166t-166 69zM660 222v0v0zM778 83l-127 131l17 17l127 -131zM381 411h218v-24h-218v24z
" />
    <glyph glyph-name="xianxingtubiao12" unicode="&#xe60c;" 
d="M486 29q-107 0 -182.5 75.5t-75.5 182.5t76 183t182.5 76t182.5 -76t76 -183t-76 -182.5t-183 -75.5zM486.5 522q-97.5 0 -166 -69t-68.5 -166t68.5 -165.5t166 -68.5t166 68.5t68.5 165.5t-68.5 166t-166 69zM779 -16l-121 127l17 16l121 -127zM380 299h212v-24h-212v24
zM474 399h25v-217h-25v217z" />
    <glyph glyph-name="xianxingtubiao19" unicode="&#xe613;" 
d="M716 121l-12 21q6 4 10 7l13 -20q-5 -4 -11 -8zM722 2l-112 80q-32 -6 -65 -6q-120 0 -205 70t-85 168.5t85 168.5t205 70t205 -70t85 -169q0 -54 -28 -102.5t-80 -82.5l-13 20q46 30 71.5 73.5t25.5 91.5q0 89 -78 152t-188 63t-188 -63t-78 -151.5t78 -151.5t188 -63
q33 0 65 6l5 1l83 -58v78l6 13l22 -10l-4 -9v-119v0v0z" />
    <glyph glyph-name="xianxingtubiao23" unicode="&#xe618;" 
d="M512 55q-117 0 -200 83t-83 200t83 200t200 83q61 0 124 -30t104 -79l-18 -15q-38 45 -96 72t-114 27q-107 0 -183 -75.5t-76 -183t76 -183t183 -75.5t183 75.5t76 183.5q0 27 -6 54l24 5q6 -29 6 -59q0 -117 -83 -200t-200 -83zM743 488h-121v24h97v107h24v-131z" />
    <glyph glyph-name="xianxingtubiao36" unicode="&#xe624;" 
d="M734 97h-399q-25 0 -42.5 18t-17.5 43v459q0 25 17.5 42.5t42.5 17.5h324l136 -133v-386q0 -25 -18 -43t-43 -18zM335 653q-15 0 -25.5 -10.5t-10.5 -25.5v-459q0 -15 10.5 -25.5t25.5 -10.5h399q15 0 25.5 10.5t10.5 25.5v376l-121 119h-314zM654 665zM782 527l-128 1
q-5 0 -8.5 3.5t-3.5 8.5v125h24v-113l117 -1zM366 524h131v-24h-131v24zM366 462h131v-24h-131v24zM366 397h131v-24h-131v24zM366 305h311v-24h-311v24zM677 233v-24l-311 -2v24z" />
    <glyph glyph-name="xinxi1" unicode="&#xe602;" 
d="M513 675q-127 0 -216.5 -78t-89.5 -189q0 -63 32 -118.5t88 -92.5v-113l100 69q42 -11 86 -11q127 0 217 78t90 188.5t-90 188.5t-217 78zM513 168q-49 0 -95 15l-24 -20q1 0 1.5 -0.5l0.5 -0.5l-42 -30l-1 55v24q-55 34 -87.5 85.5t-32.5 111.5q0 100 82 170t198 70
t198 -70t82 -169.5t-82 -170t-198 -70.5zM322 409v0q0 -14 10.5 -24.5t25 -10.5t25 10.5t10.5 24.5v0q0 15 -10.5 25.5t-25 10.5t-25 -10.5t-10.5 -25.5zM479 409.5q0 -14.5 10.5 -25t25 -10.5t25 10.5t10.5 24.5v0q0 15 -10.5 25.5t-25 10.5t-25 -10.5t-10.5 -25zM636 409
q0 -14 10.5 -24.5t25 -10.5t25 10.5t10.5 24.5v0q0 15 -10.5 25.5t-25 10.5t-25 -10.5t-10.5 -25.5v0z" />
    <glyph glyph-name="xianxingtubiao3604" unicode="&#xe619;" 
d="M481.5 619q-114.5 0 -195.5 -81t-81 -196t81 -196t195.5 -81t196 81t81.5 196t-81.5 196t-196 81zM481.5 89q-104.5 0 -178.5 74t-74 179t74 179t178.5 74t179 -74t74.5 -179t-74.5 -179t-179 -74zM611 280l-117 66v171q0 6 -6 6h-12q-6 0 -6 -6v-181q0 -2 1 -3
q1 -2 2 -3l126 -71q6 -3 9 2l5 10q3 6 -2 9z" />
    <glyph glyph-name="xianxingtubiao3609" unicode="&#xe63f;" 
d="M527 597h-24q-6 0 -6 6v24q0 3 1.5 4.5t4.5 1.5h24q6 0 6 -6v-24q0 -3 -2 -4.5t-4 -1.5zM509 609h12v12h-12v-12zM278 349h-24q-6 0 -6 6v24q0 6 6 6h24q6 0 6 -6v-24q0 -6 -6 -6zM260 361h12v12h-12v-12zM527 100h-24q-6 0 -6 6v24q0 6 6 6h24q6 0 6 -6v-24q0 -6 -6 -6z
M509 112h12v12h-12v-12zM775 349h-24q-6 0 -6 6v24q0 6 6 6h24q6 0 6 -6v-24q0 -6 -6 -6zM757 361h12v12h-12v-12zM767 309v0v0v0v0zM515 132q-97 0 -166 69t-69 166t69 166t166 69t166 -69t69 -166t-69 -166t-166 -69zM515 589q-92 0 -157.5 -65t-65.5 -157t65.5 -157.5
t157.5 -65.5t157.5 65.5t65.5 157.5t-65.5 157t-157.5 65zM514.5 268q-40.5 0 -69.5 29t-29 69.5t29 69.5t69.5 29t69.5 -29t29 -69.5t-29 -69.5t-69.5 -29zM514.5 453q-35.5 0 -61 -25.5t-25.5 -61t25.5 -61t61 -25.5t61 25.5t25.5 61t-25.5 61t-61 25.5z" />
    <glyph glyph-name="xianxingtubiao3603" unicode="&#xe644;" 
d="M759 438h-156v-24h132q10 0 17 -7t7 -17v-289q0 -10 -7 -17t-17 -7h-458q-10 0 -17 7t-7 17v289q0 10 7 17t17 7h133v24h-157q-10 0 -17 -7t-7 -17v-337q0 -10 7 -17t17 -7h506q10 0 17 7t7 17v337q0 10 -7 17t-17 7zM444 525q4 -5 8 0l42 41v-320h24v320l42 -41
q4 -5 8 0l9 8q4 4 0 9l-59 58v7h-8h-2h-3h-3h-8v-7l-59 -58q-4 -5 0 -9z" />
    <glyph glyph-name="xianxingtubiao3626" unicode="&#xe66f;" 
d="M722 455v0.5v0.5q0 43 -29.5 73t-72.5 30q-22 0 -42 -9q-24 32 -60.5 50.5t-77.5 18.5q-73 0 -124 -51t-51 -124q0 -27 9 -55q-26 -14 -41.5 -39.5t-15.5 -55.5q0 -42 27.5 -72.5t68.5 -35.5v0h301q65 0 111 45.5t46 110.5q0 67 -49 113zM614 210h-12v0h-289v1
q-31 4 -51.5 27.5t-20.5 55.5q0 5 1 10v3l2 8v1v1q3 10 8 19l0.5 1l0.5 1q3 4 5 7l0.5 0.5l0.5 0.5q6 8 15 15v0q5 3 9 6v0q11 6 23 9v0q-4 7 -7 15q0 1 -1 2q-2 6 -4 13l-1 4q-1 6 -2 13q0 1 -1 1v3q-1 9 -1 17q0 63 44 107t107 44q7 0 16 -1q1 0 3 -0.5l2 -0.5q7 -1 11 -2
q2 0 6 -1q6 -2 10 -3q3 -1 5 -2q5 -2 11 -5q3 -1 4 -1q6 -3 12 -7l0.5 -0.5l0.5 -0.5q32 -21 50 -54q1 1 2 1.5t1 1.5h0.5h0.5q4 4 9 6q1 0 1.5 0.5l0.5 0.5q5 2 9 4h0.5h0.5q5 2 11 3h2q6 1 11 1q6 0 12 -1l1 -0.5l1 -0.5q6 -1 11 -3h2q6 -2 11 -5v0q5 -3 10 -7h1
q5 -4 9 -9v0q20 -23 20 -53q0 -5 -1 -11q50 -40 50 -103q0 -55 -39 -93.5t-94 -38.5z" />
    <glyph glyph-name="xianxingtubiao3629" unicode="&#xe672;" 
d="M693 653q-42 0 -80 -26.5t-59 -76.5q-22 51 -59.5 78t-79.5 27v0v-24q22 0 44.5 -13t39 -31t29.5 -36.5t19 -31.5l7 -13q2 5 6.5 13.5t19 29.5t30 37t38.5 29.5t45 13.5q46 0 78 -35q36 -39 36 -109q0 -43 -22.5 -86.5t-52 -73.5t-69.5 -59t-63.5 -42.5t-45.5 -23.5
q-21 10 -45 23.5t-64 42t-69.5 59t-52 73.5t-22.5 86q0 70 36 111q32 36 78 36v24q-57 0 -97.5 -46t-40.5 -125q0 -39 15.5 -77t39 -67.5t55 -57.5t58 -46t55 -34t38.5 -21t16 -7v0q6 2 16 7t38.5 21t55 34t58 46t54.5 57.5t39 68t16 77.5q0 79 -40.5 123.5t-97.5 44.5z" />
    <glyph glyph-name="daiban2" unicode="&#xe603;" horiz-adv-x="1450" 
d="M519 248h171q6 14 13 26h-184v-26zM757 433h-238v-26h238v26zM439 76q-11 0 -18.5 7.5t-7.5 18.5v517q0 11 7.5 19t18.5 8h411q11 0 19 -8t8 -19v-252q14 -1 26 -4v256q0 22 -15.5 37.5t-37.5 15.5h-411q-22 0 -37.5 -15.5t-15.5 -37.5v-517q0 -22 15.5 -37.5t37.5 -15.5
h295q-13 12 -23 27h-272v0zM757 334v20h-238v-27h230q4 4 8 7v0zM863 314q-55 0 -93.5 -38.5t-38.5 -93.5t38.5 -94t93.5 -39t94 39t39 94t-39 93.5t-94 38.5zM863 76q-44 0 -75 31t-31 75t31 75t75 31t75 -31t31 -75t-31 -75t-75 -31zM757 513h-238v-27h238v27zM877 248
h-27v-80h80v27h-53v53v0z" />
    <glyph glyph-name="renshuxianxing" unicode="&#xe614;" 
d="M759 168h1q0 1 -0.5 1.5l-0.5 0.5l-1 2q-37 107 -139 147q41 24 65 65.5t24 91.5q0 75 -53 128.5t-129 53.5t-129.5 -53.5t-53.5 -128.5q0 -50 24.5 -91.5t65.5 -65.5q-99 -39 -138 -147l-1 -1q0 -1 -0.5 -2t-0.5 -2v0v-1v-2q0 -19 15 -19q13 0 18 13q25 64 74.5 103.5
t125.5 39.5q145 0 202 -144v-0.5v-0.5v-0.5v-0.5h1q5 -10 16 -10q15 0 15 19q0 1 -1 4zM381 475.5q0 60.5 42.5 103t102.5 42.5t102.5 -42.5t42.5 -103t-42.5 -103t-102.5 -42.5t-102.5 42.5t-42.5 103z" />
    <glyph glyph-name="xinxixianxing" unicode="&#xe61a;" 
d="M514.5 661q109.5 0 187 -77.5t77.5 -187t-77.5 -187t-187 -77.5t-187.5 77.5t-78 187t78 187t187.5 77.5zM514 679q-117 0 -199.5 -82.5t-82.5 -199.5t82.5 -200t199.5 -83t200 83t83 200t-83 199.5t-200 82.5v0zM514.5 479q-7.5 0 -12.5 -5t-5 -12v-202q0 -8 5 -13
t12.5 -5t12.5 5t5 13v202q0 7 -5 12t-12.5 5zM514 534zM497 533.5q0 7.5 5 12.5t12.5 5t12.5 -5t5 -12.5t-5 -12.5t-12.5 -5t-12.5 5t-5 12.5z" />
    <glyph glyph-name="xinxi2" unicode="&#xe675;" 
d="M527 79h-31q-3 1 -4 1q-30 1 -59 9q-127 34 -194 148q-33 55 -40 121q0 1 -2 20v32v3q6 45 7 47q30 135 150 206q55 33 122 41q1 0 20 2h31l3 -1q40 -5 42 -5q103 -20 174 -99q73 -81 80 -192q3 -53 -12 -106q-8 -29 -26 -63q-7 -15 -2 -30q13 -35 39 -108q3 -9 -1.5 -14
t-12.5 -4q-17 4 -52 10.5t-53 10.5q-23 4 -32 6q-14 2 -31 -6q-45 -21 -95 -27q-2 0 -21 -2v0zM798 113l-1 4q-29 80 -34 94q-2 7 -2 18q0 10 10 29q52 100 24 208q-22 90 -91 150t-161 69q-160 16 -260 -108q-75 -93 -63.5 -211t102.5 -196q59 -50 136 -64.5t151 11.5
q6 3 18 8t18 8q18 6 30 4q11 -2 98 -19q4 -1 8 -1.5t9 -1.5t8 -2v0zM527 79h-31q-3 0 -4 1q-30 1 -59 9q-127 34 -194 148q-32 54 -40 120q0 1 -2 21v31q1 3 1 4q6 44 6 46q31 135 150 206q55 33 122 40q1 0 20 2h31h3q40 -5 42 -6q103 -20 173 -98q73 -82 80 -192
q3 -53 -12 -105q-8 -30 -25 -64q-8 -14 -2 -29q13 -36 38 -109q4 -8 -0.5 -13.5t-13.5 -3.5q-17 3 -51.5 10t-52.5 11q-24 4 -32 5q-14 3 -32 -6q-45 -20 -94 -26q-2 0 -21 -2v0zM797 113l-1 3q-29 81 -33 94q-3 7 -3 18q1 10 11 30q51 99 24 207q-23 89 -92 149t-160 69
q-159 16 -260 -108q-74 -93 -62.5 -210t101.5 -195q59 -50 136 -64.5t150 11.5q7 3 19 8t17 7q18 7 31 5q10 -2 97 -19q1 0 25 -5v0zM407 392.5q0 -18.5 -13.5 -31.5t-32 -13t-31.5 13t-13 31.5t13 31.5t31.5 13t32 -13t13.5 -31.5zM557 392.5q0 -18.5 -13 -31.5t-31.5 -13
t-31.5 13t-13 31.5t13 31.5t31.5 13t31.5 -13t13 -31.5zM663.5 348q-18.5 0 -31.5 13t-13 31.5t13 31.5t31.5 13t31.5 -13t13 -31.5t-13 -31.5t-31.5 -13z" />
    <glyph glyph-name="icon07" unicode="&#xe6a9;" 
d="M361 381h302q7 0 11.5 4.5t4.5 11t-4.5 11t-11.5 4.5h-302q-7 0 -11.5 -4.5t-4.5 -11t4.5 -11t11.5 -4.5zM361 244h302q7 0 11.5 4.5t4.5 11t-4.5 11t-11.5 4.5h-302q-7 0 -11.5 -4.5t-4.5 -11t4.5 -11t11.5 -4.5zM397.5 517q6.5 0 11 4.5t4.5 10.5v131q0 6 -4.5 10.5
t-11 4.5t-11 -4.5t-4.5 -10.5v-131q0 -6 4.5 -10.5t11 -4.5zM470 625h84v-31h-84v31zM785 625h-86v-31h77v-537h-528v537h77v31h-86q-9 0 -15 -7t-6 -17v-550q0 -10 6 -17t15 -7h546q9 0 15 7t6 17v550q0 10 -6 17t-15 7zM626.5 517q6.5 0 11 4.5t4.5 10.5v131
q0 6 -4.5 10.5t-11 4.5t-11 -4.5t-4.5 -10.5v-131q0 -6 4.5 -10.5t11 -4.5z" />
    <glyph glyph-name="icon08" unicode="&#xe6aa;" 
d="M743 471v7q0 92 -64.5 156.5t-155.5 64.5h-24q-91 0 -155.5 -64.5t-64.5 -156.5v-7q-25 -5 -42.5 -25.5t-17.5 -46.5v-314q0 -31 21.5 -52.5t52.5 -21.5h436q31 0 52.5 21.5t21.5 52.5v314q0 26 -17.5 46.5t-42.5 25.5zM310 478q0 79 55.5 134.5t133.5 55.5h24
q78 0 133.5 -55.5t55.5 -134.5v-6h-402v6zM772 85q0 -18 -12.5 -30.5t-30.5 -12.5h-436q-18 0 -30.5 12.5t-12.5 30.5v314q0 17 12.5 29.5t30.5 12.5h436q18 0 30.5 -12.5t12.5 -29.5v-314zM511 345q-26 0 -44.5 -18.5t-18.5 -44.5q0 -24 15 -41v-43q0 -20 14 -34t34 -14
t34 14t14 34v43q15 17 15 41q0 26 -18.5 44.5t-44.5 18.5zM533 258l-5 -5v-55q0 -7 -5 -12t-12 -5t-12 5t-5 12v55l-5 5q-10 10 -10 24q0 13 9.5 22.5t22.5 9.5t22.5 -9.5t9.5 -22.5q0 -14 -10 -24z" />
    <glyph glyph-name="icon13" unicode="&#xe6af;" 
d="M513 533zM464 533.5q0 20.5 14.5 35t35 14.5t35 -14.5t14.5 -35t-14.5 -35.5t-35 -15t-35 15t-14.5 35.5zM513 350zM464 349.5q0 20.5 14.5 35t35 14.5t35 -14.5t14.5 -35t-14.5 -35t-35 -14.5t-35 14.5t-14.5 35zM513 166zM464 166.5q0 20.5 14.5 35t35 14.5t35 -14.5
t14.5 -35t-14.5 -35.5t-35 -15t-35 15t-14.5 35.5z" />
    <glyph glyph-name="icon17" unicode="&#xe6b3;" 
d="M727 649h-438q-24 0 -41 -17t-17 -42v-438q0 -24 17 -41t41 -17h438q24 0 41.5 17t17.5 41v438q0 25 -17.5 42t-41.5 17zM759 152q0 -13 -9.5 -22t-22.5 -9h-438q-13 0 -22 9t-9 22v110l155 155l179 -179l90 90l77 -77v-99zM682 367l-90 -90l-179 178l-155 -155v290
q0 13 9 22.5t22 9.5h438q13 0 22.5 -9.5t9.5 -22.5v-300zM625 509q0 -12 8 -20.5t20 -8.5t20.5 8.5t8.5 20.5t-8.5 20t-20.5 8t-20 -8t-8 -20z" />
    <glyph glyph-name="icon18" unicode="&#xe6b4;" 
d="M843 459q-6 8 -16 8h-51v20q0 10 -7 17t-16 7h-126l-13 58q-2 8 -9 13.5t-16 5.5h-75l-2 9q-1 8 -8.5 13.5t-16.5 5.5h-242q-9 0 -16 -6.5t-7 -15.5v-443q0 -9 7 -16t16 -7h508v0h2q8 0 14.5 5.5t8.5 12.5l69 292q3 13 -4 21zM589 563v-1l12 -51h-69l-12 51zM247 590h240
h1l24 -105h239v-331h-504v436zM776 249v193h46zM551 350h-65v65q0 6 -4 9.5t-9 3.5t-9 -3.5t-4 -9.5v-65h-65q-6 0 -9.5 -4t-3.5 -9t3.5 -9t9.5 -4h65v-65q0 -6 4 -9.5t9 -3.5t9 3.5t4 9.5v65h65q6 0 9.5 4t3.5 9t-3.5 9t-9.5 4z" />
    <glyph glyph-name="icon24" unicode="&#xe6c3;" 
d="M730 486q-15 0 -29 -2q-5 66 -54 112t-116.5 46t-116.5 -46t-54 -112q-14 2 -29 2q-70 0 -120 -50t-50 -121t50 -121t120 -50h9q6 1 10.5 5.5t4 11t-5 10.5t-11.5 4h-7q-58 0 -99 41t-41 99t41 99t99 41q21 0 40 -5l20 -6l-1 21v6q0 58 41 99t99 41t99.5 -41t41.5 -99v-6
l-1 -21l20 6q19 5 40 5q57 0 98.5 -41t41.5 -99t-41.5 -99t-98.5 -41h-18q-6 0 -10.5 -4.5t-4.5 -11t4.5 -11t10.5 -4.5h18q70 0 120 50t50 121t-50 121t-120 50zM629 234l-83 -84v215q0 6 -4.5 10.5t-11 4.5t-11 -4.5t-4.5 -10.5v-215l-83 84q-11 10 -22 -0.5t0 -21.5
l110 -110q4 -4 10.5 -4t10.5 4l110 110q11 11 0 21.5t-22 0.5z" />
    <glyph glyph-name="icon29" unicode="&#xe6c8;" 
d="M730 486q-15 0 -29 -2q-5 66 -54 112t-116.5 46t-116.5 -46t-54 -112q-14 2 -29 2q-70 0 -120 -50t-50 -121t50 -121t120 -50h9q6 1 10.5 5.5t4 11t-5 10.5t-11.5 4h-7q-58 0 -99 41t-41 99t41 99t99 41q21 0 40 -5l20 -6l-1 21v6q0 58 41 99t99 41t99.5 -41t41.5 -99v-6
l-1 -21l20 6q19 5 40 5q57 0 98.5 -41t41.5 -99t-41.5 -99t-98.5 -41h-18q-6 0 -10.5 -4.5t-4.5 -11t4.5 -11t10.5 -4.5h18q70 0 120 50t50 121t-50 121t-120 50zM541 376l-1 1q-11 8 -20 -1l-110 -110q-11 -11 0 -22q4 -4 10.5 -4t11.5 4l83 84v-215q0 -6 4.5 -10.5
t11 -4.5t11 4.5t4.5 10.5v215l83 -84q5 -4 11 -4t11 4q11 11 0 22z" />
    <glyph glyph-name="icon30" unicode="&#xe6c9;" 
d="M251 429q-6 0 -10.5 -4.5t-4.5 -11.5v-274q0 -6 4.5 -10.5t10.5 -4.5t10.5 4.5t4.5 10.5v274q0 7 -4.5 11.5t-10.5 4.5zM827 371q-3 44 -36 63q-24 14 -66 14q-18 0 -52 -4q-24 -2 -33 -2h-8q0 9 13 39q32 72 27 123q-4 45 -20 69q-17 27 -43 27q-28 0 -51 -28.5
t-31 -71.5q-18 -88 -113 -139q-49 -25 -95 -33l-13 -2v-304l14 -1q73 -4 139 -23q19 -5 30 -8q16 -5 47 -13q80 -24 115 -24q53 0 86 37q49 56 72 133q22 72 18 148zM714 111q-24 -27 -63 -27q-30 0 -106 22q-31 9 -48 13q-11 3 -30 9q-65 18 -130 23v250q47 10 90 33
q48 25 79 59q39 44 51 101v0q6 33 21.5 54t30.5 21q12 0 21 -18.5t12 -49.5q3 -42 -25 -107q-19 -45 -14 -63q5 -20 37 -20q10 0 36 3q33 3 49 3q37 0 53.5 -11t17.5 -37q4 -73 -18 -141.5t-64 -116.5z" />
    <glyph glyph-name="icon31" unicode="&#xe6ca;" 
d="M822 443q0 29 -18 50t-43 21h-85q30 26 38 64q8 45 -18 75q-23 26 -60 26q-46 0 -87 -34q-14 -13 -29 -36q-15 23 -30 36q-40 34 -86 34q-38 0 -60 -26q-26 -30 -18 -75q8 -38 38 -64h-85q-26 0 -44 -21t-18 -50v-102h47v-222q0 -24 19 -41t45 -17h384q26 0 45 17t19 41
v222h46v102zM569 621q32 28 67 28q23 0 37 -16q16 -19 10 -49q-7 -38 -42 -56q-21 -11 -76 -14h-30v60q4 9 15 24.5t19 22.5zM399 528q-35 18 -43 56q-5 30 11 49q13 16 37 16q34 0 66 -28q9 -7 20 -22.5t15 -24.5v-60h-30q-55 3 -76 14zM248 443q0 16 9 28.5t22 12.5h195
q14 -1 31 -1v-112h-239h-18v72zM295 119v222h210v-249h-177q-14 0 -23.5 8t-9.5 19zM745 119q0 -11 -10 -19t-23 -8h-177v249h210v-222zM792 371h-18h-239v112q17 0 31 1h195q13 0 22 -12.5t9 -28.5v-72z" />
    <glyph glyph-name="icon53" unicode="&#xe6cb;" 
d="M649 195q-29 0 -51 -21l-224 155q6 14 6 29t-6 29l224 154q21 -20 51 -20q31 0 53 21.5t22 52.5t-22 53t-53 22t-52.5 -22t-21.5 -53q0 -15 5 -28l-224 -155q-21 20 -51 20q-31 0 -53 -22t-22 -52.5t22 -52.5t53 -22q30 0 51 21l224 -155q-5 -14 -5 -29q0 -31 21.5 -53
t52.5 -22t53 22t22 53t-22 53t-53 22zM649 639q18 0 31 -13t13 -31t-13 -31t-31 -13t-31 13t-13 31t13 31t31 13zM305 314q-18 0 -31 12.5t-13 31t13 31.5t31 13t31 -13t13 -31.5t-13 -31t-31 -12.5zM649 76q-18 0 -31 13t-13 31t13 31t31 13t31 -13t13 -31t-13 -31t-31 -13
z" />
    <glyph glyph-name="icon55" unicode="&#xe6cd;" 
d="M512 383q-54 0 -92.5 -38.5t-38.5 -93t38.5 -93t92.5 -38.5t92.5 38.5t38.5 93t-38.5 93t-92.5 38.5zM512 151q-42 0 -71.5 29.5t-29.5 71t29.5 71t71.5 29.5t71.5 -29.5t29.5 -71t-29.5 -71t-71.5 -29.5zM831.5 668q-4.5 7 -12.5 7h-211v0v0h-192v0v0h-211
q-8 0 -12.5 -7t-1.5 -14l126 -300q-25 -48 -25 -102q0 -92 64.5 -156t155.5 -64t155.5 64t64.5 156q0 54 -25 102l126 300q3 7 -1.5 14zM512 472q-42 0 -81 -16v188h162v-188q-39 16 -81 16zM228 644h173v-202q-25 -15 -45 -35q-10 -10 -19 -22zM512 62q-78 0 -133.5 55.5
t-55.5 134t55.5 134t133.5 55.5t133.5 -55.5t55.5 -134t-55.5 -134t-133.5 -55.5zM687 385q-9 12 -19 22q-20 20 -45 35v202h173z" />
    <glyph glyph-name="icon60" unicode="&#xe6d2;" 
d="M837 132h-654v510q0 6 -4.5 10.5t-11 4.5t-11 -4.5t-4.5 -10.5v-525q0 -7 4.5 -11.5t10.5 -4.5h670q6 0 10.5 4.5t4.5 11t-4.5 11t-10.5 4.5zM237 251q6 0 11 5l177 177l120 -120v0q4 -5 11 -5t11 4l172 171l18 -18q7 -7 13.5 -5.5t8.5 9.5l15 76q2 9 -3 14t-14 3
l-75 -16q-9 -1 -10.5 -7.5t5.5 -13.5l20 -20l-160 -160l-121 121q-4 4 -10.5 4t-11.5 -4l-188 -189q-11 -11 0 -21q5 -5 11 -5z" />
    <glyph glyph-name="icon45" unicode="&#xe6d7;" 
d="M733 676.5q-7 7.5 -17 7.5v0v0q-57 -1 -110 -2q-48 -1 -77 -2q-17 -1 -26 -2q-16 -1 -21 -6l-299 -299q-8 -8 -8.5 -20t7.5 -21l207 -206q8 -8 20 -8v0q12 0 21 9l299 298q5 5 6 21q1 9 1 27q2 28 3 76q1 53 1 110q0 10 -7 17.5zM704 444l-295 -295l-203 203l295 295
q31 4 208 6q-1 -178 -5 -209zM582 461q27 0 45.5 19t18.5 45.5t-18.5 45.5t-45.5 19t-46 -19t-19 -45.5t19 -45.5t46 -19zM558 549q10 10 24 10t24 -10t10 -24t-10 -23.5t-24 -9.5t-24 9.5t-10 23.5t10 24z" />
    <glyph glyph-name="icon59" unicode="&#xe6e5;" 
d="M823 381q-29 94 -119 153q-91 61 -206.5 61t-206.5 -61q-90 -59 -120 -153q-1 -5 0 -9q30 -94 120 -154q91 -60 206.5 -60t206.5 60q90 60 119 154q2 4 0 9zM497.5 189q-102.5 0 -185 52t-110.5 135q28 83 110.5 135.5t185 52.5t184.5 -52.5t110 -135.5
q-28 -83 -110 -135t-184.5 -52zM497 492q-48 0 -82 -34t-34 -82t34 -82t82 -34t82 34t34 82t-34 82t-82 34zM497.5 291q-35.5 0 -60.5 25t-25 60.5t25 60.5t60.5 25t60.5 -25t25 -60.5t-25 -60.5t-60.5 -25z" />
    <glyph glyph-name="icon62" unicode="&#xe6e8;" 
d="M167 117h670h-670zM1019 353zM167.5 657q-6.5 0 -11 -4.5t-4.5 -10.5v-525q0 -7 4.5 -11.5t11 -4.5t11 4.5t4.5 11.5v525q0 6 -4.5 10.5t-11 4.5zM725 494q-13 0 -22 -9t-9 -22q0 -4 1 -8l-104 -104q-5 3 -11.5 3t-11.5 -3l-104 104q1 4 1 8q0 13 -9 22t-22 9t-22 -9
t-9 -22q0 -4 1 -8l-108 -107q-4 1 -8 1q-13 0 -22 -9.5t-9 -22t9 -21.5t22 -9t22 9t9 22q0 4 -1 8l107 107q5 -1 9 -1t8 1l107 -106q-1 -2 -1 -5q0 -12 9.5 -21.5t22 -9.5t22 9.5t9.5 21.5q0 3 -1 5l107 106q4 -1 8 -1q13 0 22 9t9 22t-9 22t-22 9z" />
    <glyph glyph-name="icon64" unicode="&#xe6ea;" 
d="M832 376l0.5 0.5l0.5 0.5l0.5 0.5t0.5 1v1t0.5 0.5t0.5 0.5v0.5v1v1h1v1v0v3v0.5v0.5q-1 0 -1 0.5v1v0.5v0.5t-0.5 1t-0.5 1v0.5l-0.5 0.5l-0.5 0.5l-0.5 0.5l-0.5 0.5q0 1 -1 2l-90 89q-10 11 -21 0t0 -21l63 -64h-237q-6 0 -10.5 -4.5t-4.5 -11t4.5 -11t10.5 -4.5h237
l-63 -63q-11 -11 0 -22q4 -4 10.5 -4t10.5 4l90 90q1 0 1 1zM724 110q0 -5 -3.5 -9t-8.5 -4h-422q-6 0 -9.5 4t-3.5 9v551q0 5 3.5 9t9.5 4h422q5 0 8.5 -4t3.5 -9v-120h29v120q0 17 -12 29.5t-29 12.5h-422q-18 0 -30 -12.5t-12 -29.5v-551q0 -17 12 -29t30 -12h422
q17 0 29 12t12 29v121h-29v-121z" />
    <glyph glyph-name="icon69" unicode="&#xe6ef;" 
d="M685 90v0q-70 0 -151 48q-68 40 -136 107v0q-86 86 -125 171q-50 106 -14 187q10 23 40 51q37 36 66 36q13 0 22 -7q25 -16 55 -57q31 -43 36 -69q8 -38 -42 -79q-14 -12 -33 -23l7 -12q31 -58 80 -107q48 -48 107 -80l12 -6q10 16 20 29q36 47 71 47q6 0 11 -1
q26 -6 68 -37q42 -30 58 -54q10 -16 4 -37q-7 -26 -35.5 -54.5t-49.5 -37.5q-33 -15 -71 -15zM420 266q70 -69 139 -107t126 -38v0q31 0 59 12q14 7 38 30.5t30 41.5q2 8 -1 12q-12 19 -49.5 46t-56.5 32h-5q-17 0 -38 -24.5t-33 -48.5q-3 -6 -9 -7.5t-12 1.5l-25 13h-1
q-62 34 -114 85v0q-51 52 -85 115v0l-14 25q-3 6 -1 12t8 9q26 14 51 36t21 40q-4 19 -31 56.5t-46 50.5q-3 1 -6 1q-16 0 -44 -27q-26 -24 -34 -42q-30 -67 13 -161q38 -80 120 -163z" />
    <glyph glyph-name="icon75" unicode="&#xe6f5;" 
d="M416 98zM379 98.5q0 15.5 11 26.5t26.5 11t26 -11t10.5 -26.5t-10.5 -26.5t-26 -11t-26.5 11t-11 26.5zM733 98zM696 98.5q0 15.5 11 26.5t26.5 11t26 -11t10.5 -26.5t-10.5 -26.5t-26 -11t-26.5 11t-11 26.5zM835 210h-519q-33 307 -51 382q-7 30 -33 35h-1q-27 3 -73 4
h-1q-6 0 -10.5 -4.5t-4.5 -10.5t4.5 -10.5t10.5 -5.5q45 -1 69 -4q7 -1 9 -11q17 -73 50 -378q1 -12 9 -19.5t19 -7.5h522q7 0 11.5 4.5t4.5 11t-4.5 10.5t-11.5 4zM368 276q-7 -1 -11 -6t-3 -11t5 -10t10 -4h2l408 41v0q10 2 17 9.5t7 17.5l6 226v0q0 11 -8 19t-18 8h-414
q-6 0 -10.5 -4.5t-4.5 -11t4.5 -11t10.5 -4.5h409l-5 -218z" />
    <glyph glyph-name="icon78" unicode="&#xe6f8;" 
d="M499 708l93 -198l217 -27l-160 -150l41 -214l-191 105l-191 -105l41 214l-159 150l216 27z" />
    <glyph glyph-name="icon79" unicode="&#xe6f9;" 
d="M499 635l65 -138l7 -15l17 -3l152 -19l-112 -104l-12 -12l3 -16l29 -151l-134 74l-15 8l-15 -8l-134 -74l29 151l3 16l-12 12l-112 104l152 19l17 3l7 15zM499 708l-93 -198l-216 -27l159 -150l-41 -214l191 105l191 -105l-41 214l160 150l-217 27l-93 198v0z" />
    <glyph glyph-name="icon88" unicode="&#xe701;" 
d="M852 486q-1 2 -2 3l-98 128q0 1 -1 1v1h-1v1h-1v0l-1 1v0h-1v0v0h-1q0 1 -1 1v0h-1v0h-1h-1h-401v0h-1v0h-2v0l-1 -1v0h-0.5h-0.5v0v0q-1 0 -1 -1h-1v0l-1 -1v0v-1h-1v-1v0v0l-99 -129q-5 -6 -1 -13q2 -3 5 -5l297 -334q3 -4 8.5 -4t8.5 4l299 337q5 6 2 13zM542 199
l-123 270h246zM587 598l82 -105h-254l82 105h90zM684 511l-67 87h107zM399 511l-39 87h107zM745 587l72 -94h-115zM339 587l43 -94h-116zM393 469l131 -286l-254 286h123zM542 162h1v0v0h-1zM561 183l130 286h124z" />
  </font>
</defs>
</svg>
